<svg id="Layer_1" data-name="Layer 1" xmlns="http://www.w3.org/2000/svg" viewBox="0 0 4361.21 1299.54"><defs><style>.cls-1{fill:#3fa9f5;}.cls-2{font-size:50px;}.cls-17,.cls-2{font-family:ArgentumSans-Black, Argentum Sans;font-weight:800;}.cls-3{letter-spacing:-0.01em;}.cls-4{letter-spacing:-0.06em;}.cls-5{letter-spacing:0em;}.cls-17,.cls-6{fill:#fff;}.cls-7{font-size:20px;font-family:ArgentumSans-Light, Argentum Sans;font-weight:300;}.cls-8{letter-spacing:-0.02em;}.cls-9{letter-spacing:-0.01em;}.cls-10{letter-spacing:-0.02em;}.cls-11{letter-spacing:-0.02em;}.cls-12{letter-spacing:-0.03em;}.cls-13{letter-spacing:0.01em;}.cls-14{letter-spacing:0em;}.cls-15{letter-spacing:-0.05em;}.cls-16{letter-spacing:-0.02em;}.cls-17{font-size:41px;}.cls-18{letter-spacing:-0.02em;}</style></defs><rect class="cls-1" x="4203.21" y="45.78" width="43.46" height="119.82" rx="21.73"/><rect class="cls-1" x="4317.74" y="49.3" width="43.46" height="148.6" rx="21.73"/><rect class="cls-1" x="4198.69" y="-307.89" width="112.21" height="43.46" rx="21.73" transform="translate(1167.73 2987.59) rotate(-39.81)"/><rect class="cls-1" x="4258.45" y="-245.94" width="95.74" height="43.46" rx="21.73" transform="translate(362.46 1853.47) rotate(-20.93)"/><text class="cls-2" transform="translate(3489.42 180.46)">N<tspan class="cls-3" x="39.05" y="0">O</tspan><tspan class="cls-4" x="78.55" y="0">V</tspan><tspan class="cls-5" x="113.75" y="0">A HIVE</tspan></text><rect class="cls-1" x="3404" y="440.24" width="872" height="552"/><rect class="cls-6" x="3875.71" y="606.65" width="43.46" height="148.6" rx="21.73"/><rect class="cls-6" x="3754.65" y="248.46" width="112.21" height="43.46" rx="21.73" transform="translate(708.61 2832.27) rotate(-39.81)"/><rect class="cls-6" x="3814.62" y="641.31" width="95.74" height="43.46" rx="21.73"/><rect class="cls-6" x="3761.17" y="603.13" width="43.46" height="119.82" rx="21.73"/><path class="cls-6" d="M3704.48,507.83h-11.87l-16.88-21.89v21.89h-12.9V465h11.86l16.94,22V465h12.85Z" transform="translate(-1.79 329.89)"/><path class="cls-6" d="M3732,507.86q-10.14,0-16.84-6.07a20,20,0,0,1-6.7-15.51,19.72,19.72,0,0,1,6.67-15.34q6.66-6,16.87-6t16.88,6a19.75,19.75,0,0,1,6.67,15.31,20,20,0,0,1-6.67,15.51Q3742.21,507.86,3732,507.86Zm.19-11.8a8.69,8.69,0,0,0,6.11-2.52c1.8-1.67,2.69-4.07,2.69-7.2a9.3,9.3,0,0,0-2.66-7,8.58,8.58,0,0,0-6.14-2.57,9.23,9.23,0,0,0-6.36,2.54,9,9,0,0,0-2.81,7.07,9.21,9.21,0,0,0,2.81,7.09A9.07,9.07,0,0,0,3732.18,496.06Z" transform="translate(-1.79 329.89)"/><path class="cls-6" d="M3786.48,507.83H3771.8L3755.54,465h15.16l8.87,28.13,8.81-28.13h14.49Z" transform="translate(-1.79 329.89)"/><path class="cls-6" d="M3813.51,465h14.68l16.26,42.87h-15.16l-8.87-28.13-8.8,28.13h-14.5Z" transform="translate(-1.79 329.89)"/><path class="cls-6" d="M3910.8,507.83h-14.18V492.36h-13.27v15.47h-14.19V465h14.19v16.63h13.27V465h14.18Z" transform="translate(-1.79 329.89)"/><path class="cls-6" d="M3931.11,507.83h-14.19V465h14.19Z" transform="translate(-1.79 329.89)"/><path class="cls-6" d="M3964.8,507.83h-14.68L3933.86,465H3949l8.87,28.13L3966.7,465h14.49Z" transform="translate(-1.79 329.89)"/><path class="cls-6" d="M4020.76,507.83h-36.82V465h36.27v10.76h-22.08V481h20.06v10.77h-20.06v5.32h22.63Z" transform="translate(-1.79 329.89)"/><rect class="cls-1" x="3805.91" y="1082.47" width="29.47" height="100.77" rx="14.74"/><rect class="cls-1" x="3764.49" y="1105.97" width="64.92" height="29.47" rx="14.74"/><rect class="cls-1" x="3579.53" y="1094.47" width="29.47" height="100.77" rx="14.74"/><rect class="cls-1" x="3498.02" y="745.39" width="76.09" height="29.47" rx="14.74" transform="translate(331.26 2769.98) rotate(-39.81)"/><rect class="cls-1" x="3538.11" y="1117.97" width="64.92" height="29.47" rx="14.74"/><rect class="cls-1" x="3501.86" y="1092.08" width="29.47" height="81.25" rx="14.74"/><rect class="cls-1" x="4034.04" y="745.39" width="76.09" height="29.47" rx="14.74" transform="translate(455.52 3113.16) rotate(-39.81)"/><rect class="cls-1" x="4037.89" y="1092.08" width="29.47" height="81.25" rx="14.74"/><text class="cls-7" transform="translate(3493.16 1246.38)">Cl<tspan class="cls-8" x="19.8" y="0">ov</tspan><tspan x="41.44" y="0">e shape </tspan><tspan class="cls-9" x="2.33" y="24">t</tspan><tspan x="9.97" y="24">o represent</tspan><tspan x="33.41" y="48">a hi</tspan><tspan class="cls-10" x="69.53" y="48">v</tspan><tspan x="79.15" y="48">e</tspan></text><text class="cls-7" transform="translate(3691.84 1246.38)">Handsha<tspan class="cls-11" x="87.96" y="0">k</tspan><tspan x="98.96" y="0">e gesture </tspan><tspan class="cls-9" x="196.2" y="0">t</tspan><tspan x="203.84" y="0">o</tspan><tspan x="35.75" y="24">represent trust</tspan></text><text class="cls-7" transform="translate(3953.74 1235.38)">Fa<tspan class="cls-12" x="22.8" y="0">c</tspan><tspan x="33.52" y="0">e d</tspan><tspan class="cls-8" x="64.86" y="0">o</tspan><tspan class="cls-13" x="76.88" y="0">w</tspan><tspan class="cls-14" x="94.32" y="0">n </tspan><tspan class="cls-9" x="113.44" y="0">t</tspan><tspan x="121.08" y="0">o represent</tspan><tspan class="cls-15" x="51.82" y="24">T</tspan><tspan class="cls-16" x="61.98" y="24">r</tspan><tspan x="68.92" y="24">ansparency</tspan></text><path class="cls-6" d="M3089.48,704.83h-11.87l-16.88-21.89v21.89h-12.9V662h11.86l16.94,22V662h12.85Z" transform="translate(-1.79 329.89)"/><path class="cls-6" d="M3117,704.86q-10.14,0-16.84-6.07a20,20,0,0,1-6.7-15.51,19.72,19.72,0,0,1,6.67-15.34q6.66-6,16.87-6t16.88,6a19.75,19.75,0,0,1,6.67,15.31,20,20,0,0,1-6.67,15.51Q3127.21,704.87,3117,704.86Zm.19-11.8a8.69,8.69,0,0,0,6.11-2.52c1.8-1.67,2.69-4.07,2.69-7.2a9.3,9.3,0,0,0-2.66-7,8.58,8.58,0,0,0-6.14-2.57,9.23,9.23,0,0,0-6.36,2.54,9,9,0,0,0-2.81,7.07,9.21,9.21,0,0,0,2.81,7.09A9.07,9.07,0,0,0,3117.18,693.06Z" transform="translate(-1.79 329.89)"/><path class="cls-6" d="M3171.48,704.83H3156.8L3140.54,662h15.16l8.87,28.13,8.81-28.13h14.49Z" transform="translate(-1.79 329.89)"/><path class="cls-6" d="M3198.51,662h14.68l16.26,42.87h-15.16l-8.87-28.13-8.8,28.13h-14.5Z" transform="translate(-1.79 329.89)"/><path class="cls-6" d="M3295.8,704.83h-14.18V689.36h-13.27v15.47h-14.19V662h14.19v16.63h13.27V662h14.18Z" transform="translate(-1.79 329.89)"/><path class="cls-6" d="M3316.11,704.83h-14.19V662h14.19Z" transform="translate(-1.79 329.89)"/><path class="cls-6" d="M3349.8,704.83h-14.68L3318.86,662H3334l8.87,28.13L3351.7,662h14.49Z" transform="translate(-1.79 329.89)"/><path class="cls-6" d="M3405.76,704.83h-36.82V662h36.27v10.76h-22.08V678h20.06v10.77h-20.06v5.32h22.63Z" transform="translate(-1.79 329.89)"/><rect class="cls-1" x="1543.21" y="538.24" width="872" height="552"/><rect class="cls-6" x="1997.89" y="728.22" width="22.62" height="77.34" rx="11.31"/><rect class="cls-6" x="1935.75" y="383.6" width="58.4" height="22.62" rx="11.31" transform="translate(200.88 1679.45) rotate(-39.81)"/><rect class="cls-6" x="1966.1" y="746.26" width="49.83" height="22.62" rx="11.31"/><rect class="cls-6" x="1938.28" y="726.39" width="22.62" height="62.36" rx="11.31"/><text class="cls-17" transform="translate(1881.77 868.61)">n<tspan class="cls-18" x="27.96" y="0">ov</tspan><tspan x="78.39" y="0">ahi</tspan><tspan class="cls-18" x="145.43" y="0">v</tspan><tspan x="169.9" y="0">e</tspan></text><rect class="cls-1" x="59.79" y="783.81" width="22.62" height="77.34" rx="11.31"/><rect class="cls-1" x="-2.35" y="439.19" width="58.4" height="22.62" rx="11.31" transform="translate(-283.99 451.51) rotate(-39.81)"/><rect class="cls-1" x="28" y="801.85" width="49.83" height="22.62" rx="11.31"/><rect class="cls-1" x="0.18" y="781.98" width="22.62" height="62.36" rx="11.31"/></svg>